<?xml version="1.0" encoding="utf-8"?>
<!-- Generator: Adobe Illustrator 18.1.1, SVG Export Plug-In . SVG Version: 6.00 Build 0)  -->
<!DOCTYPE svg PUBLIC "-//W3C//DTD SVG 1.1//EN" "http://www.w3.org/Graphics/SVG/1.1/DTD/svg11.dtd">
<svg version="1.1" id="Layer_1" xmlns="http://www.w3.org/2000/svg" xmlns:xlink="http://www.w3.org/1999/xlink" x="0px" y="0px"
	 width="26.1px" height="55.1px" viewBox="-1 -12.1 26.1 55.1" enable-background="new -1 -12.1 26.1 55.1" xml:space="preserve">
<g>
	<path fill="#404040" d="M3.1,43C0.8,43-1,41.1-1,38.9V-7.7c0-2.2,1.8-4.1,4.1-4.1H21c2.2,0,4.1,1.8,4.1,4.1v46.6
		c0,2.2-1.8,4.1-4.1,4.1H3.1z"/>
</g>
<rect x="0.9" y="-4" fill="#585858" width="22.3" height="39.5"/>
<circle fill="#585858" cx="12" cy="39.5" r="2"/>
<path fill="#585858" d="M13.8-6.6c0.2,0,0.4-0.2,0.4-0.4l0,0c0-0.2-0.2-0.4-0.4-0.4h-3.6C10-7.4,9.8-7.2,9.8-7l0,0
	c0,0.2,0.2,0.4,0.4,0.4H13.8z"/>
<circle fill="#585858" cx="12" cy="-9.1" r="0.5"/>
<rect x="16.1" y="-12.1" fill="#404041" width="4.2" height="0.6"/>
</svg>
