<?xml version="1.0" encoding="utf-8"?>
<!-- Generator: Adobe Illustrator 18.1.1, SVG Export Plug-In . SVG Version: 6.00 Build 0)  -->
<!DOCTYPE svg PUBLIC "-//W3C//DTD SVG 1.1//EN" "http://www.w3.org/Graphics/SVG/1.1/DTD/svg11.dtd">
<svg version="1.1" id="Layer_1" xmlns="http://www.w3.org/2000/svg" xmlns:xlink="http://www.w3.org/1999/xlink" x="0px" y="0px"
	 width="83.5px" height="48px" viewBox="27 -9 83.5 48" enable-background="new 27 -9 83.5 48" xml:space="preserve">
<rect x="35.6" y="-7.2" fill="#58595B" width="66.3" height="42.2"/>
<path fill="#404041" d="M102.8,34.6v-41c0-1.4-1.2-2.6-2.6-2.6h-63c-1.4,0-2.6,1.2-2.6,2.6v41c0,0.7,0.3,1.3,0.7,1.8H102
	C102.5,35.9,102.8,35.3,102.8,34.6z M100.4,33.5H36.7V-6.4h63.7V33.5z"/>
<polygon fill="#D0D2D3" points="102.1,36.4 35.3,36.4 27,36.4 27,37.9 110.5,37.9 110.5,36.4 "/>
<circle fill="#929497" cx="68.7" cy="-7.6" r="0.4"/>
<path fill="#BBBDBF" d="M68.7,36.4h-0.2h-5.8c0,0,0.2,1,1.1,1c0.8,0,3.9,0,4.7,0c0.1,0,0.2,0,0.2,0c0.8,0,3.9,0,4.7,0
	c0.9,0,1.1-1,1.1-1H68.7z"/>
<path fill="#E6E7E8" d="M27,37.9c0,0,0.5,1.1,4.8,1.1s36.7,0,36.7,0h0.4c0,0,32.4,0,36.7,0s4.8-1.1,4.8-1.1"/>
</svg>
