<?xml version="1.0" encoding="utf-8"?>
<!-- Generator: Adobe Illustrator 18.1.1, SVG Export Plug-In . SVG Version: 6.00 Build 0)  -->
<!DOCTYPE svg PUBLIC "-//W3C//DTD SVG 1.1//EN" "http://www.w3.org/Graphics/SVG/1.1/DTD/svg11.dtd">
<svg version="1.1" id="Layer_1" xmlns="http://www.w3.org/2000/svg" xmlns:xlink="http://www.w3.org/1999/xlink" x="0px" y="0px"
	 width="44.1px" height="65.2px" viewBox="7 -17.2 44.1 65.2" enable-background="new 7 -17.2 44.1 65.2" xml:space="preserve">
<g>
	<path fill="#404040" d="M51-13.9c0-1.7-1.4-3.2-3.2-3.2H10.3c-1.7,0-3.2,1.4-3.2,3.2v58.6c0,1.7,1.4,3.2,3.2,3.2h37.5
		c1.7,0,3.2-1.4,3.2-3.2V-13.9z"/>
	<path fill="#404040" stroke="#404041" stroke-width="0.2491" stroke-miterlimit="10" d="M51-13.9c0-1.7-1.4-3.2-3.2-3.2H10.3
		c-1.7,0-3.2,1.4-3.2,3.2v58.6c0,1.7,1.4,3.2,3.2,3.2h37.5c1.7,0,3.2-1.4,3.2-3.2V-13.9z"/>
</g>
<rect x="9.3" y="-10.7" fill="#595959" width="39.6" height="52.2"/>
<ellipse fill="#595959" cx="29.1" cy="-13.8" rx="0.4" ry="0.5"/>
<path fill="#595959" d="M30.7,44.9c0-0.9-0.7-1.7-1.7-1.7c-0.9,0-1.7,0.7-1.7,1.7c0,0.9,0.7,1.7,1.7,1.7
	C30,46.5,30.7,45.8,30.7,44.9z"/>
</svg>
