<?xml version="1.0" encoding="utf-8"?>
<!-- Generator: Adobe Illustrator 18.1.1, SVG Export Plug-In . SVG Version: 6.00 Build 0)  -->
<!DOCTYPE svg PUBLIC "-//W3C//DTD SVG 1.1//EN" "http://www.w3.org/Graphics/SVG/1.1/DTD/svg11.dtd">
<svg version="1.1" id="Layer_1" xmlns="http://www.w3.org/2000/svg" xmlns:xlink="http://www.w3.org/1999/xlink" x="0px" y="0px"
	 width="113.5px" height="85.5px" viewBox="0 0 113.5 85.5" enable-background="new 0 0 113.5 85.5" xml:space="preserve">
<g>
	<g>
		<g>
			<path fill="#CCCCCC" d="M35.2,1.9c-7.6,0-15.2,0-22.8,0c0,0,0.2,0.1,0.4,0.2c0,0,0.1,0.1,0.1,0.1c0,0,0.1,0,0.1,0.1
				c0,0,0.1,0,0.1,0.1c0,0,0,0,0,0c0.1,0,0.1,0.1,0.1,0.1c0.1,0.1,0,0,0,0.1c0,0-0.1-0.1-0.1-0.1c7.6,0,15.2,0,22.8,0
				c0,0-0.2-0.2-0.4-0.3C35.3,2.1,35.5,2.2,35.2,1.9z M62,1.9c-8,0-15.9,0-23.9,0c0.4,0.3,0.3,0.2,0.4,0.3c0.1,0.1,0.3,0.3,0.3,0.3
				c8,0,15.9,0,23.9,0c0,0-0.2-0.2-0.4-0.3C62.2,2.1,62.3,2.2,62,1.9z M88.5,1.9c-7.8,0-15.7,0-23.5,0c0.4,0.3,0.3,0.2,0.4,0.3
				c0.1,0.1,0.3,0.3,0.3,0.3c7.8,0,15.7,0,23.5,0c0,0-0.2-0.2-0.4-0.3C88.7,2.1,88.8,2.2,88.5,1.9z M12.8,3.4
				c-0.1,0-0.2-0.1-0.2-0.1c0,0-0.1,0-0.1,0c0,0,0,0,0,0c0,0,0,0,0,0c0,0,0,0.1,0,0.1c0,0,0.1,0.1-0.2,0.1
				c7.2,6.4,12.1,14.4,14.9,22.9c0.1-0.1,0.3-0.1,0.5-0.1c0.1,0,0.1,0,0.2,0C25,17.8,20.1,9.9,13,3.5C13,3.5,12.8,3.4,12.8,3.4z
				 M107.7,29.6c-0.1,0-0.1,0-0.2,0c2.2,8.6,2.2,17.7,0,26.3c0.1,0,0.1,0,0.2,0c0.2,0,0.4,0,0.5,0.1c2.2-8.7,2.2-17.8,0-26.5
				C108.1,29.6,107.9,29.6,107.7,29.6z M89.6,82.8c-7.8,0-15.7,0-23.5,0c-0.3,0.3-0.2,0.2-0.3,0.3c-0.1,0.1-0.3,0.3-0.4,0.3
				c7.8,0,15.7,0,23.5,0c0,0,0.2-0.2,0.3-0.3C89.3,83,89.2,83.1,89.6,82.8z M63.1,82.8c-8,0-15.9,0-23.9,0c-0.3,0.3-0.2,0.2-0.3,0.3
				c-0.1,0.1-0.3,0.3-0.4,0.3c8,0,15.9,0,23.9,0c0,0,0.2-0.2,0.3-0.3C62.8,83,62.7,83.1,63.1,82.8z M36.2,82.8c-7.6,0-15.2,0-22.8,0
				c-0.3,0.3-0.2,0.2-0.3,0.3c-0.1,0.1-0.3,0.3-0.4,0.3c7.6,0,15.2,0,22.8,0c0,0,0.2-0.2,0.3-0.3C35.9,83,35.8,83.1,36.2,82.8z
				 M27.1,59.1c-2.8,8.5-7.7,16.5-14.9,22.9c0.2-0.1,0.5-0.1,0.6-0.1c0.1,0,0.1,0,0.2,0c7.1-6.4,12.1-14.3,14.8-22.8
				c-0.1,0-0.1,0-0.2,0C27.4,59.2,27.2,59.2,27.1,59.1z M106.8,59.2c-0.1,0-0.1,0-0.2,0c-2.8,8.5-7.7,16.4-14.8,22.8
				c0.1,0,0.1,0,0.2,0c0.2,0,0.3,0,0.5,0.1c7.2-6.4,12.2-14.4,14.9-22.9C107.2,59.2,107,59.2,106.8,59.2z M28.6,29.6
				c-0.2,0-0.4,0-0.6-0.1c2.2,8.7,2.2,17.8,0,26.5c0.2-0.1,0.4-0.1,0.6-0.1c0.1,0,0.1,0,0.2,0c2.2-8.6,2.2-17.7,0-26.3
				C28.7,29.6,28.6,29.6,28.6,29.6z M92,3.5c-0.1,0-0.1,0-0.2,0c7.1,6.4,12.1,14.3,14.8,22.8c0.1,0,0.1,0,0.2,0c0.2,0,0.4,0,0.6,0.1
				c-2.8-8.5-7.7-16.5-14.9-22.9C92.3,3.5,92.2,3.5,92,3.5z"/>
		</g>
		<g>
			<path fill="#CCCCCC" d="M38.8,3.5c7.1,6.4,12.1,14.3,14.8,22.8c-0.1,0-0.1,0-0.2,0c-0.2,0-0.4,0-0.5,0.1
				c-2.8-8.5-7.7-16.5-14.9-22.9c0.2,0.1,0.5,0.1,0.6,0.1C38.6,3.5,38.7,3.5,38.8,3.5z"/>
			<path fill="#CCCCCC" d="M54.5,29.6c2.2,8.6,2.2,17.7,0,26.3c-0.1,0-0.1,0-0.2,0c-0.2,0-0.4,0-0.6,0.1c2.2-8.7,2.2-17.8,0-26.5
				c0.2,0.1,0.4,0.1,0.6,0.1C54.4,29.6,54.5,29.6,54.5,29.6z"/>
			<path fill="#CCCCCC" d="M53.6,59.2c-2.8,8.5-7.7,16.4-14.8,22.8c-0.1,0-0.1,0-0.2,0c-0.2,0-0.4,0-0.6,0.1
				c7.2-6.4,12.2-14.4,14.9-22.9c0.1,0.1,0.3,0.1,0.5,0.1C53.4,59.2,53.5,59.2,53.6,59.2z"/>
		</g>
		<g>
			<path fill="#CCCCCC" d="M65.6,3.5c7.1,6.4,12.1,14.3,14.8,22.8c-0.1,0-0.2,0-0.2,0c-0.2,0-0.4,0-0.5,0.1C77,17.8,72,9.9,64.8,3.5
				c0.2,0.1,0.5,0.1,0.6,0.1C65.5,3.5,65.6,3.5,65.6,3.5z"/>
			<path fill="#CCCCCC" d="M81.4,29.6c2.2,8.6,2.2,17.7,0,26.3c-0.1,0-0.1,0-0.2,0c-0.2,0-0.4,0-0.6,0.1c2.2-8.7,2.2-17.8,0-26.5
				c0.2,0.1,0.4,0.1,0.6,0.1C81.3,29.6,81.3,29.6,81.4,29.6z"/>
			<path fill="#CCCCCC" d="M80.4,59.2c-2.8,8.5-7.7,16.4-14.8,22.8c-0.1,0-0.1,0-0.2,0c-0.2,0-0.4,0-0.6,0.1
				C72,75.6,77,67.7,79.7,59.1c0.1,0.1,0.3,0.1,0.5,0.1C80.3,59.2,80.4,59.2,80.4,59.2z"/>
		</g>
		<g>
			<path fill="#CCCCCC" d="M52.6,28.6c-7.6,0-15.3,0-22.9,0c0.1,0,0.1-0.3,0.1-0.6c0-0.1,0-0.1-0.1-0.2c7.5,0,15,0,22.5,0
				c0,0.1,0,0.1,0.1,0.2C52.3,28.2,52.5,28.6,52.6,28.6z"/>
			<path fill="#CCCCCC" d="M79.5,28.6c-8,0-16.1,0-24.1,0c0.1,0,0.2-0.3,0.1-0.6c0-0.1,0-0.1-0.1-0.2c7.9,0,15.7,0,23.6,0
				c0,0.1,0,0.1,0.1,0.2C79.2,28.2,79.4,28.6,79.5,28.6z"/>
			<path fill="#CCCCCC" d="M106.1,28.6c-7.9,0-15.9,0-23.8,0c0.1,0,0.2-0.3,0.1-0.6c0-0.1,0-0.1-0.1-0.2c7.7,0,15.5,0,23.2,0
				c0,0.1,0,0.1,0.1,0.2C105.7,28.2,106,28.6,106.1,28.6z"/>
		</g>
		<g>
			<path fill="#CCCCCC" d="M52.4,57.4c0,0.1-0.1,0.4-0.1,0.4c-7.6,0-15.2,0-22.8,0c0,0,0.1-0.2,0.1-0.4c0-0.1,0,0,0.1-0.4
				c7.6,0,15.2,0,22.8,0C52.4,57.4,52.5,57.2,52.4,57.4z"/>
			<path fill="#CCCCCC" d="M79.3,57.4c0,0.1-0.1,0.4-0.1,0.4c-8,0-15.9,0-23.9,0c0,0,0.1-0.2,0.1-0.4c0-0.1,0,0,0.1-0.4
				c8,0,15.9,0,23.9,0C79.3,57.4,79.3,57.2,79.3,57.4z"/>
			<path fill="#CCCCCC" d="M105.8,57.4c0,0.1-0.1,0.4-0.1,0.4c-7.8,0-15.7,0-23.5,0c0,0,0.1-0.2,0.1-0.4c0-0.1,0,0,0.1-0.4
				c7.8,0,15.7,0,23.5,0C105.8,57.4,105.8,57.2,105.8,57.4z"/>
		</g>
	</g>
	<g>
		<path fill="#333333" d="M27.3,24.7C27.3,24.7,27.3,24.7,27.3,24.7c-0.1,0-0.2,0-0.2,0c-0.2,0-0.4,0-0.5,0.1c0,0,0,0,0,0
			c-1.3,0.3-1.9,1.5-1.4,3.1c0.5,1.6,1.8,2.7,3.3,3.1c0.3,0,0.5,0,0.8,0c1.3,0,2.3-0.9,2.3-2.3c-0.1-0.3-0.1-0.5-0.2-0.8
			C30.8,26.2,28.9,24.8,27.3,24.7z M28.8,29.6c-0.1,0-0.1,0-0.2,0c-0.2,0-0.4,0-0.6-0.1c-0.6-0.2-1.2-0.9-1.4-1.6
			c-0.2-0.7,0-1.3,0.5-1.6c0.1-0.1,0.3-0.1,0.5-0.1c0.1,0,0.1-0.1,0.2-0.1c0.8,0.1,1.6,0.7,1.8,1.5c0,0,0.1,0,0.1,0
			c0,0.1,0,0.1,0.1,0.2c0.1,0.3,0,0.5,0,0.8C29.7,29.2,29.3,29.6,28.8,29.6z"/>
		<path fill="#333333" d="M12.7,3.5C12.7,3.5,12.7,3.5,12.7,3.5C12.7,3.5,12.7,3.5,12.7,3.5C12.7,3.5,12.7,3.5,12.7,3.5z M14,2
			C14,2,14,2,14,2C12.4,0.8,10,0,8.4,0C6.8,0,6.8,1,8.4,2.3c1.4,1.2,3.5,2.2,5.1,2.4c0.1,0,0.1,0,0.2,0c0.1,0,0.3,0,0.4,0
			c0.1,0,0.1,0,0.2,0c0.1,0,0.1,0,0.2,0c1.2-0.1,1.4-1.1,0.2-2.1c0,0,0,0,0,0c-0.1-0.1-0.2-0.2-0.3-0.3C14.3,2.2,14.2,2.1,14,2z
			 M13.3,2.6c0.4,0.4,0.2,0.7-0.2,0.8c0,0-0.2-0.1-0.3-0.1c0,0,0,0,0,0c0,0,0,0.1,0,0.1c0,0,0,0,0,0c0,0,0,0,0,0
			c0,0-0.2-0.1-0.2-0.1c0,0-0.1-0.1-0.2-0.1c0,0,0,0,0,0c0,0,0.1,0.1,0.1,0.1c0,0,0,0-0.1,0c0,0-0.1,0-0.1,0
			c-0.8-0.1-1.8-0.6-2.5-1.2C9,1.6,9.1,1.1,10,1.1c0.7,0,1.7,0.4,2.7,0.9c0,0,0,0,0,0c0,0,0,0,0,0c0.1,0,0.1,0.1,0.2,0.1
			c0,0,0,0,0.1,0c0,0,0,0,0.1,0c0,0,0,0,0,0c0,0,0,0,0,0c0.1,0,0.1,0.1,0.2,0.1C13.3,2.5,13.3,2.5,13.3,2.6
			C13.4,2.6,13.4,2.6,13.3,2.6C13.4,2.6,13.3,2.6,13.3,2.6z"/>
		<path fill="#333333" d="M14.7,82.9c1.1-1.1,0.9-2.1-0.4-2.1c-0.1,0-0.1,0-0.2,0c-0.2,0-0.4,0-0.6,0C11.9,81,9.8,82,8.4,83.2
			c-1.6,1.3-1.6,2.3,0.1,2.3c1.5,0,4-0.9,5.6-2c0.1-0.1,0.2-0.2,0.3-0.3C14.5,83.1,14.6,83,14.7,82.9z M9.9,84.4
			c-0.8,0-0.9-0.5-0.1-1.2c0.6-0.5,1.5-1,2.3-1.1c0.2-0.1,0.5-0.1,0.6-0.1c0.1,0,0.1,0,0.2,0c0.6,0.1,0.7,0.4,0.3,0.9
			c-0.1,0.1-0.2,0.2-0.3,0.3c-0.1,0.1-0.2,0.2-0.4,0.3C11.8,84,10.6,84.4,9.9,84.4z"/>
		<path fill="#333333" d="M31.2,57.1c0.2-1.5-0.7-2.8-2.1-2.9c-0.1,0-0.1,0-0.2,0c-0.2,0-0.4,0-0.6,0.1c-1.5,0.3-2.8,1.6-3.3,3.2
			c-0.5,1.6,0.1,2.9,1.4,3.2c0.2,0,0.3,0.1,0.5,0.1c0.1,0,0.1,0,0.2,0c1.5-0.1,3.1-1.3,3.8-2.9c0-0.1,0.1-0.2,0.1-0.4
			C31.2,57.4,31.2,57.3,31.2,57.1z M27.8,59.2c-0.1,0-0.1,0-0.2,0c-0.2,0-0.4,0-0.5-0.1c-0.5-0.2-0.7-0.8-0.5-1.6
			c0.2-0.7,0.8-1.3,1.4-1.6c0.2-0.1,0.4-0.1,0.6-0.1c0.1,0,0.1,0,0.2,0c0.6,0.1,1,0.6,1,1.2c0,0.1,0,0.3-0.1,0.4
			c0,0.1-0.1,0.2-0.1,0.4C29.2,58.6,28.5,59.1,27.8,59.2z"/>
		<path fill="#333333" d="M53.1,24.7C53.1,24.7,53,24.7,53.1,24.7c-0.1,0-0.2,0-0.2,0c-0.2,0-0.4,0-0.6,0c0,0,0,0,0,0
			c-1.3,0.3-2,1.6-1.5,3.2c0,0,0,0,0,0c0.1,0.3,0.2,0.5,0.4,0.8c0.6,1.3,1.8,2.2,3,2.5c0,0,0,0,0,0c0.2,0,0.3-0.1,0.5-0.1
			c0.1,0,0.1-0.1,0.2-0.1c0,0,0,0,0,0c1.3,0,2.2-1,2.2-2.3c0,0,0,0,0,0c0-0.2,0-0.4,0-0.7c0,0,0,0,0,0
			C56.5,26.2,54.7,24.8,53.1,24.7z M54.5,29.6c-0.1,0-0.1,0-0.2,0c-0.2,0-0.4,0-0.6-0.1c-0.4-0.1-0.8-0.4-1.1-0.8
			c-0.2-0.2-0.4-0.5-0.4-0.8c0-0.1,0-0.1-0.1-0.2c0,0,0.1,0,0.1,0c-0.1-0.4,0-1.2,0.5-1.4c0.1-0.1,0.3-0.1,0.5-0.1
			c0.1,0,0.1-0.1,0.2-0.1c0.8,0.1,1.6,0.8,1.8,1.6c0,0,0.1,0,0.1,0c0,0.1,0,0.1,0.1,0.2c0.1,0.3,0,0.5,0,0.8
			C55.4,29.2,55,29.6,54.5,29.6z"/>
		<path fill="#333333" d="M35.8,2.5c-0.5,0-1,0-1.5,0c1.5,1.2,3.5,2.1,5,2.3c-0.4-0.4-0.9-0.9-1.4-1.3C37.3,3.3,36.6,3,35.8,2.5z
			 M35.8,2.5c-0.5,0-1,0-1.5,0c1.5,1.2,3.5,2.1,5,2.3c-0.4-0.4-0.9-0.9-1.4-1.3C37.3,3.3,36.6,3,35.8,2.5z M35.8,2.5
			c-0.5,0-1,0-1.5,0c1.5,1.2,3.5,2.1,5,2.3c-0.4-0.4-0.9-0.9-1.4-1.3C37.3,3.3,36.6,3,35.8,2.5z M35.8,2.5c-0.5,0-1,0-1.5,0
			c1.5,1.2,3.5,2.1,5,2.3c-0.4-0.4-0.9-0.9-1.4-1.3C37.3,3.3,36.6,3,35.8,2.5z M35.8,2.5c-0.5,0-1,0-1.5,0c1.5,1.2,3.5,2.1,5,2.3
			c-0.4-0.4-0.9-0.9-1.4-1.3C37.3,3.3,36.6,3,35.8,2.5z M35.8,2.5c-0.5,0-1,0-1.5,0c1.5,1.2,3.5,2.1,5,2.3c-0.4-0.4-0.9-0.9-1.4-1.3
			C37.3,3.3,36.6,3,35.8,2.5z M35.8,2.5c-0.5,0-1,0-1.5,0c1.5,1.2,3.5,2.1,5,2.3c-0.4-0.4-0.9-0.9-1.4-1.3C37.3,3.3,36.6,3,35.8,2.5
			z M35.8,2.5c-0.5,0-1,0-1.5,0c1.5,1.2,3.5,2.1,5,2.3c-0.4-0.4-0.9-0.9-1.4-1.3C37.3,3.3,36.6,3,35.8,2.5z M35.8,2.5
			c-0.5,0-1,0-1.5,0c1.5,1.2,3.5,2.1,5,2.3c-0.4-0.4-0.9-0.9-1.4-1.3C37.3,3.3,36.6,3,35.8,2.5z M35.8,2.5c-0.5,0-1,0-1.5,0
			c1.5,1.2,3.5,2.1,5,2.3c-0.4-0.4-0.9-0.9-1.4-1.3C37.3,3.3,36.6,3,35.8,2.5z M35.8,2.5c-0.5,0-1,0-1.5,0c1.5,1.2,3.5,2.1,5,2.3
			c-0.4-0.4-0.9-0.9-1.4-1.3C37.3,3.3,36.6,3,35.8,2.5z M35.8,2.5c-0.5,0-1,0-1.5,0c1.5,1.2,3.5,2.1,5,2.3c-0.4-0.4-0.9-0.9-1.4-1.3
			C37.3,3.3,36.6,3,35.8,2.5z M35.8,2.5c-0.5,0-1,0-1.5,0c1.5,1.2,3.5,2.1,5,2.3c-0.4-0.4-0.9-0.9-1.4-1.3C37.3,3.3,36.6,3,35.8,2.5
			z M35.8,2.5c-0.5,0-1,0-1.5,0c1.5,1.2,3.5,2.1,5,2.3c-0.4-0.4-0.9-0.9-1.4-1.3C37.3,3.3,36.6,3,35.8,2.5z M35.8,2.5
			c-0.5,0-1,0-1.5,0c1.5,1.2,3.5,2.1,5,2.3c-0.4-0.4-0.9-0.9-1.4-1.3C37.3,3.3,36.6,3,35.8,2.5z M39.8,2c-1.6-1.2-4-2-5.6-2
			c-1.5,0-1.6,0.8-0.4,2c0.1,0.1,0.2,0.2,0.4,0.3c0.1,0.1,0.2,0.2,0.3,0.3c1.4,1.1,3.3,1.9,4.8,2.1c0.2,0,0.4,0,0.6,0
			c0.1,0,0.1,0,0.2,0c1.4-0.1,1.6-1,0.4-2.2c-0.1-0.1-0.2-0.2-0.3-0.3C40,2.2,39.9,2.1,39.8,2z M38.8,3.5c-0.1,0-0.1,0-0.2,0
			c-0.2,0-0.4,0-0.6-0.1c-0.6-0.1-1.4-0.5-2-0.9c-0.1-0.1-0.2-0.2-0.4-0.3c-0.1-0.1-0.2-0.2-0.3-0.3c-0.5-0.5-0.3-0.9,0.4-0.9
			c0.7,0,1.8,0.4,2.6,0.9c0.2,0.1,0.3,0.2,0.4,0.3c0.1,0.1,0.2,0.2,0.3,0.3C39.4,3.1,39.3,3.5,38.8,3.5z M35.8,2.5c-0.5,0-1,0-1.5,0
			c1.5,1.2,3.5,2.1,5,2.3c-0.4-0.4-0.9-0.9-1.4-1.3C37.3,3.3,36.6,3,35.8,2.5z M35.8,2.5c-0.5,0-1,0-1.5,0c1.5,1.2,3.5,2.1,5,2.3
			c-0.4-0.4-0.9-0.9-1.4-1.3C37.3,3.3,36.6,3,35.8,2.5z M35.8,2.5c-0.5,0-1,0-1.5,0c1.5,1.2,3.5,2.1,5,2.3c-0.4-0.4-0.9-0.9-1.4-1.3
			C37.3,3.3,36.6,3,35.8,2.5z M35.8,2.5c-0.5,0-1,0-1.5,0c1.5,1.2,3.5,2.1,5,2.3c-0.4-0.4-0.9-0.9-1.4-1.3C37.3,3.3,36.6,3,35.8,2.5
			z M35.8,2.5c-0.5,0-1,0-1.5,0c1.5,1.2,3.5,2.1,5,2.3c-0.4-0.4-0.9-0.9-1.4-1.3C37.3,3.3,36.6,3,35.8,2.5z M35.8,2.5
			c-0.5,0-1,0-1.5,0c1.5,1.2,3.5,2.1,5,2.3c-0.4-0.4-0.9-0.9-1.4-1.3C37.3,3.3,36.6,3,35.8,2.5z M35.8,2.5c-0.5,0-1,0-1.5,0
			c1.5,1.2,3.5,2.1,5,2.3c-0.4-0.4-0.9-0.9-1.4-1.3C37.3,3.3,36.6,3,35.8,2.5z M35.8,2.5c-0.5,0-1,0-1.5,0c1.5,1.2,3.5,2.1,5,2.3
			c-0.4-0.4-0.9-0.9-1.4-1.3C37.3,3.3,36.6,3,35.8,2.5z M35.8,2.5c-0.5,0-1,0-1.5,0c1.5,1.2,3.5,2.1,5,2.3c-0.4-0.4-0.9-0.9-1.4-1.3
			C37.3,3.3,36.6,3,35.8,2.5z M35.8,2.5c-0.5,0-1,0-1.5,0c1.5,1.2,3.5,2.1,5,2.3c-0.4-0.4-0.9-0.9-1.4-1.3C37.3,3.3,36.6,3,35.8,2.5
			z M35.8,2.5c-0.5,0-1,0-1.5,0c1.5,1.2,3.5,2.1,5,2.3c-0.4-0.4-0.9-0.9-1.4-1.3C37.3,3.3,36.6,3,35.8,2.5z M35.8,2.5
			c-0.5,0-1,0-1.5,0c1.5,1.2,3.5,2.1,5,2.3c-0.4-0.4-0.9-0.9-1.4-1.3C37.3,3.3,36.6,3,35.8,2.5z M35.8,2.5c-0.5,0-1,0-1.5,0
			c1.5,1.2,3.5,2.1,5,2.3c-0.4-0.4-0.9-0.9-1.4-1.3C37.3,3.3,36.6,3,35.8,2.5z M35.8,2.5c-0.5,0-1,0-1.5,0c1.5,1.2,3.5,2.1,5,2.3
			c-0.4-0.4-0.9-0.9-1.4-1.3C37.3,3.3,36.6,3,35.8,2.5z"/>
		<path fill="#333333" d="M40.5,82.9c1.1-1.1,0.9-2.1-0.4-2.1c-0.1,0-0.1,0-0.2,0c-0.2,0-0.4,0-0.6,0c-1.5,0.2-3.4,1.1-4.7,2.1
			c-0.1,0.1-0.3,0.2-0.4,0.3c-0.1,0.1-0.2,0.2-0.3,0.3c-1.3,1.2-1.2,2,0.4,2c1.5,0,4-0.9,5.6-2c0.1-0.1,0.2-0.2,0.3-0.3
			C40.3,83.1,40.4,83,40.5,82.9z M35.7,84.4c-0.7,0-0.8-0.4-0.3-0.9c0.1-0.1,0.2-0.2,0.3-0.3c0.1-0.1,0.3-0.2,0.4-0.3
			c0.6-0.4,1.3-0.7,1.9-0.8c0.2-0.1,0.5-0.1,0.6-0.1c0.1,0,0.1,0,0.2,0c0.6,0.1,0.7,0.4,0.3,0.9c-0.1,0.1-0.2,0.2-0.3,0.3
			c-0.1,0.1-0.2,0.2-0.4,0.3C37.5,84,36.4,84.4,35.7,84.4z"/>
		<path fill="#333333" d="M57,57.1c0.2-1.5-0.7-2.8-2.1-2.9c-0.1,0-0.1,0-0.2,0c-0.2,0-0.4,0-0.6,0.1c-1.3,0.3-2.6,1.4-3.1,2.8
			c-0.1,0.1-0.1,0.3-0.1,0.4c0,0.1-0.1,0.2-0.1,0.4c-0.3,1.4,0.3,2.6,1.5,2.8c0.2,0,0.3,0.1,0.5,0.1c0.1,0,0.1,0,0.2,0
			c1.5-0.1,3.1-1.3,3.8-2.9c0-0.1,0.1-0.2,0.1-0.4C56.9,57.4,57,57.3,57,57.1z M53.6,59.2c-0.1,0-0.1,0-0.2,0c-0.2,0-0.4,0-0.5-0.1
			c-0.4-0.2-0.6-0.6-0.6-1.2c0-0.1,0-0.2,0.1-0.4c0-0.1,0.1-0.3,0.2-0.4c0.3-0.5,0.7-0.9,1.2-1.1c0.2-0.1,0.4-0.1,0.6-0.1
			c0.1,0,0.1,0,0.2,0c0.6,0.1,1,0.6,1,1.2c0,0.1,0,0.3-0.1,0.4c0,0.1-0.1,0.2-0.1,0.4C54.9,58.6,54.2,59.1,53.6,59.2z"/>
		<path fill="#333333" d="M79.5,28.6c-0.5,0-1,0-1.6,0c0.7,1.6,1.8,2.3,3,2.6c0,0,0,0.1,0,0.1c-0.1-0.6-0.3-1.1-0.4-1.7
			C80.3,29.4,79.8,29,79.5,28.6z M79.5,28.6c-0.5,0-1,0-1.6,0c0.7,1.6,1.8,2.3,3,2.6c0,0,0,0.1,0,0.1c-0.1-0.6-0.3-1.1-0.4-1.7
			C80.3,29.4,79.8,29,79.5,28.6z M79.5,28.6c-0.5,0-1,0-1.6,0c0.7,1.6,1.8,2.3,3,2.6c0,0,0,0.1,0,0.1c-0.1-0.6-0.3-1.1-0.4-1.7
			C80.3,29.4,79.8,29,79.5,28.6z M79.5,28.6c-0.5,0-1,0-1.6,0c0.7,1.6,1.8,2.3,3,2.6c0,0,0,0.1,0,0.1c-0.1-0.6-0.3-1.1-0.4-1.7
			C80.3,29.4,79.8,29,79.5,28.6z M79.5,28.6c-0.5,0-1,0-1.6,0c0.7,1.6,1.8,2.3,3,2.6c0,0,0,0.1,0,0.1c-0.1-0.6-0.3-1.1-0.4-1.7
			C80.3,29.4,79.8,29,79.5,28.6z M79.5,28.6c-0.5,0-1,0-1.6,0c0.7,1.6,1.8,2.3,3,2.6c0,0,0,0.1,0,0.1c-0.1-0.6-0.3-1.1-0.4-1.7
			C80.3,29.4,79.8,29,79.5,28.6z M79.5,28.6c-0.5,0-1,0-1.6,0c0.7,1.6,1.8,2.3,3,2.6c0,0,0,0.1,0,0.1c-0.1-0.6-0.3-1.1-0.4-1.7
			C80.3,29.4,79.8,29,79.5,28.6z M79.5,28.6c-0.5,0-1,0-1.6,0c0.7,1.6,1.8,2.3,3,2.6c0,0,0,0.1,0,0.1c-0.1-0.6-0.3-1.1-0.4-1.7
			C80.3,29.4,79.8,29,79.5,28.6z M79.5,28.6c-0.5,0-1,0-1.6,0c0.7,1.6,1.8,2.3,3,2.6c0,0,0,0.1,0,0.1c-0.1-0.6-0.3-1.1-0.4-1.7
			C80.3,29.4,79.8,29,79.5,28.6z M79.5,28.6c-0.5,0-1,0-1.6,0c0.7,1.6,1.8,2.3,3,2.6c0,0,0,0.1,0,0.1c-0.1-0.6-0.3-1.1-0.4-1.7
			C80.3,29.4,79.8,29,79.5,28.6z M80,24.7C79.9,24.7,79.9,24.7,80,24.7c-0.1,0-0.2,0-0.2,0c-0.2,0-0.4,0-0.6,0c0,0,0,0,0,0
			c-1.3,0.3-2,1.6-1.5,3.2c0,0,0,0,0,0c0.1,0.3,0.2,0.5,0.4,0.8c0.6,1.3,1.8,2.2,3,2.5c0,0,0,0,0,0c0.2,0,0.3-0.1,0.5-0.1
			c0.1,0,0.1-0.1,0.2-0.1c0,0,0,0,0,0c1.3,0,2.2-1,2.2-2.3c0,0,0,0,0,0c0-0.2,0-0.4,0-0.7c0,0,0,0,0,0C83.4,26.2,81.6,24.8,80,24.7z
			 M81.4,29.6c-0.1,0-0.1,0-0.2,0c-0.2,0-0.4,0-0.6-0.1c-0.4-0.1-0.8-0.4-1.1-0.8c-0.2-0.2-0.4-0.5-0.4-0.8c0,0,0,0,0,0
			c-0.2-0.7,0.1-1.3,0.6-1.5c0,0,0,0,0.1,0c0.1-0.1,0.3-0.1,0.5-0.1c0.1,0,0.2,0,0.2,0c0.8,0.1,1.7,0.8,2,1.6c0,0,0,0,0,0
			c0.1,0.3,0,0.5,0,0.8C82.3,29.2,81.9,29.6,81.4,29.6z M79.5,28.6c-0.5,0-1,0-1.6,0c0.7,1.6,1.8,2.3,3,2.6c0,0,0,0.1,0,0.1
			c-0.1-0.6-0.3-1.1-0.4-1.7C80.3,29.4,79.8,29,79.5,28.6z M79.5,28.6c-0.5,0-1,0-1.6,0c0.7,1.6,1.8,2.3,3,2.6c0,0,0,0.1,0,0.1
			c-0.1-0.6-0.3-1.1-0.4-1.7C80.3,29.4,79.8,29,79.5,28.6z M79.5,28.6c-0.5,0-1,0-1.6,0c0.7,1.6,1.8,2.3,3,2.6c0,0,0,0.1,0,0.1
			c-0.1-0.6-0.3-1.1-0.4-1.7C80.3,29.4,79.8,29,79.5,28.6z M79.5,28.6c-0.5,0-1,0-1.6,0c0.7,1.6,1.8,2.3,3,2.6c0,0,0,0.1,0,0.1
			c-0.1-0.6-0.3-1.1-0.4-1.7C80.3,29.4,79.8,29,79.5,28.6z M79.5,28.6c-0.5,0-1,0-1.6,0c0.7,1.6,1.8,2.3,3,2.6c0,0,0,0.1,0,0.1
			c-0.1-0.6-0.3-1.1-0.4-1.7C80.3,29.4,79.8,29,79.5,28.6z M79.5,28.6c-0.5,0-1,0-1.6,0c0.7,1.6,1.8,2.3,3,2.6c0,0,0,0.1,0,0.1
			c-0.1-0.6-0.3-1.1-0.4-1.7C80.3,29.4,79.8,29,79.5,28.6z M79.5,28.6c-0.5,0-1,0-1.6,0c0.7,1.6,1.8,2.3,3,2.6c0,0,0,0.1,0,0.1
			c-0.1-0.6-0.3-1.1-0.4-1.7C80.3,29.4,79.8,29,79.5,28.6z M79.5,28.6c-0.5,0-1,0-1.6,0c0.7,1.6,1.8,2.3,3,2.6c0,0,0,0.1,0,0.1
			c-0.1-0.6-0.3-1.1-0.4-1.7C80.3,29.4,79.8,29,79.5,28.6z M79.5,28.6c-0.5,0-1,0-1.6,0c0.7,1.6,1.8,2.3,3,2.6c0,0,0,0.1,0,0.1
			c-0.1-0.6-0.3-1.1-0.4-1.7C80.3,29.4,79.8,29,79.5,28.6z M79.5,28.6c-0.5,0-1,0-1.6,0c0.7,1.6,1.8,2.3,3,2.6c0,0,0,0.1,0,0.1
			c-0.1-0.6-0.3-1.1-0.4-1.7C80.3,29.4,79.8,29,79.5,28.6z"/>
		<path fill="#333333" d="M62.7,2.5c-0.5,0-1,0-1.5,0c1.5,1.2,3.5,2.1,5,2.3c-0.4-0.4-0.9-0.9-1.4-1.3C64.2,3.3,63.5,3,62.7,2.5z
			 M62.7,2.5c-0.5,0-1,0-1.5,0c1.5,1.2,3.5,2.1,5,2.3c-0.4-0.4-0.9-0.9-1.4-1.3C64.2,3.3,63.5,3,62.7,2.5z M62.7,2.5
			c-0.5,0-1,0-1.5,0c1.5,1.2,3.5,2.1,5,2.3c-0.4-0.4-0.9-0.9-1.4-1.3C64.2,3.3,63.5,3,62.7,2.5z M62.7,2.5c-0.5,0-1,0-1.5,0
			c1.5,1.2,3.5,2.1,5,2.3c-0.4-0.4-0.9-0.9-1.4-1.3C64.2,3.3,63.5,3,62.7,2.5z M62.7,2.5c-0.5,0-1,0-1.5,0c1.5,1.2,3.5,2.1,5,2.3
			c-0.4-0.4-0.9-0.9-1.4-1.3C64.2,3.3,63.5,3,62.7,2.5z M62.7,2.5c-0.5,0-1,0-1.5,0c1.5,1.2,3.5,2.1,5,2.3c-0.4-0.4-0.9-0.9-1.4-1.3
			C64.2,3.3,63.5,3,62.7,2.5z M62.7,2.5c-0.5,0-1,0-1.5,0c1.5,1.2,3.5,2.1,5,2.3c-0.4-0.4-0.9-0.9-1.4-1.3C64.2,3.3,63.5,3,62.7,2.5
			z M62.7,2.5c-0.5,0-1,0-1.5,0c1.5,1.2,3.5,2.1,5,2.3c-0.4-0.4-0.9-0.9-1.4-1.3C64.2,3.3,63.5,3,62.7,2.5z M62.7,2.5
			c-0.5,0-1,0-1.5,0c1.5,1.2,3.5,2.1,5,2.3c-0.4-0.4-0.9-0.9-1.4-1.3C64.2,3.3,63.5,3,62.7,2.5z M62.7,2.5c-0.5,0-1,0-1.5,0
			c1.5,1.2,3.5,2.1,5,2.3c-0.4-0.4-0.9-0.9-1.4-1.3C64.2,3.3,63.5,3,62.7,2.5z M62.7,2.5c-0.5,0-1,0-1.5,0c1.5,1.2,3.5,2.1,5,2.3
			c-0.4-0.4-0.9-0.9-1.4-1.3C64.2,3.3,63.5,3,62.7,2.5z M62.7,2.5c-0.5,0-1,0-1.5,0c1.5,1.2,3.5,2.1,5,2.3c-0.4-0.4-0.9-0.9-1.4-1.3
			C64.2,3.3,63.5,3,62.7,2.5z M62.7,2.5c-0.5,0-1,0-1.5,0c1.5,1.2,3.5,2.1,5,2.3c-0.4-0.4-0.9-0.9-1.4-1.3C64.2,3.3,63.5,3,62.7,2.5
			z M62.7,2.5c-0.5,0-1,0-1.5,0c1.5,1.2,3.5,2.1,5,2.3c-0.4-0.4-0.9-0.9-1.4-1.3C64.2,3.3,63.5,3,62.7,2.5z M66.6,2
			c-1.6-1.2-4-2-5.6-2c-1.5,0-1.6,0.8-0.4,2c0.1,0.1,0.2,0.2,0.4,0.3c0.1,0.1,0.2,0.2,0.3,0.3c1.4,1.1,3.3,1.9,4.8,2.1
			c0.2,0,0.4,0,0.6,0c0.1,0,0.1,0,0.2,0c1.4-0.1,1.6-1,0.4-2.2c-0.1-0.1-0.2-0.2-0.3-0.3C66.9,2.2,66.8,2.1,66.6,2z M65.6,3.5
			c-0.1,0-0.1,0-0.2,0c-0.2,0-0.4,0-0.6-0.1c-0.6-0.1-1.4-0.5-2-0.9c-0.1-0.1-0.2-0.2-0.4-0.3c-0.1-0.1-0.2-0.2-0.3-0.3
			c-0.5-0.5-0.3-0.9,0.4-0.9c0.7,0,1.8,0.4,2.6,0.9c0.2,0.1,0.3,0.2,0.4,0.3c0.1,0.1,0.2,0.2,0.3,0.3C66.3,3.1,66.2,3.5,65.6,3.5z
			 M62.7,2.5c-0.5,0-1,0-1.5,0c1.5,1.2,3.5,2.1,5,2.3c-0.4-0.4-0.9-0.9-1.4-1.3C64.2,3.3,63.5,3,62.7,2.5z M62.7,2.5
			c-0.5,0-1,0-1.5,0c1.5,1.2,3.5,2.1,5,2.3c-0.4-0.4-0.9-0.9-1.4-1.3C64.2,3.3,63.5,3,62.7,2.5z M62.7,2.5c-0.5,0-1,0-1.5,0
			c1.5,1.2,3.5,2.1,5,2.3c-0.4-0.4-0.9-0.9-1.4-1.3C64.2,3.3,63.5,3,62.7,2.5z M62.7,2.5c-0.5,0-1,0-1.5,0c1.5,1.2,3.5,2.1,5,2.3
			c-0.4-0.4-0.9-0.9-1.4-1.3C64.2,3.3,63.5,3,62.7,2.5z M62.7,2.5c-0.5,0-1,0-1.5,0c1.5,1.2,3.5,2.1,5,2.3c-0.4-0.4-0.9-0.9-1.4-1.3
			C64.2,3.3,63.5,3,62.7,2.5z M62.7,2.5c-0.5,0-1,0-1.5,0c1.5,1.2,3.5,2.1,5,2.3c-0.4-0.4-0.9-0.9-1.4-1.3C64.2,3.3,63.5,3,62.7,2.5
			z M62.7,2.5c-0.5,0-1,0-1.5,0c1.5,1.2,3.5,2.1,5,2.3c-0.4-0.4-0.9-0.9-1.4-1.3C64.2,3.3,63.5,3,62.7,2.5z M62.7,2.5
			c-0.5,0-1,0-1.5,0c1.5,1.2,3.5,2.1,5,2.3c-0.4-0.4-0.9-0.9-1.4-1.3C64.2,3.3,63.5,3,62.7,2.5z M62.7,2.5c-0.5,0-1,0-1.5,0
			c1.5,1.2,3.5,2.1,5,2.3c-0.4-0.4-0.9-0.9-1.4-1.3C64.2,3.3,63.5,3,62.7,2.5z M62.7,2.5c-0.5,0-1,0-1.5,0c1.5,1.2,3.5,2.1,5,2.3
			c-0.4-0.4-0.9-0.9-1.4-1.3C64.2,3.3,63.5,3,62.7,2.5z M62.7,2.5c-0.5,0-1,0-1.5,0c1.5,1.2,3.5,2.1,5,2.3c-0.4-0.4-0.9-0.9-1.4-1.3
			C64.2,3.3,63.5,3,62.7,2.5z M62.7,2.5c-0.5,0-1,0-1.5,0c1.5,1.2,3.5,2.1,5,2.3c-0.4-0.4-0.9-0.9-1.4-1.3C64.2,3.3,63.5,3,62.7,2.5
			z M62.7,2.5c-0.5,0-1,0-1.5,0c1.5,1.2,3.5,2.1,5,2.3c-0.4-0.4-0.9-0.9-1.4-1.3C64.2,3.3,63.5,3,62.7,2.5z"/>
		<path fill="#333333" d="M67.4,82.9c1.1-1.1,0.9-2.1-0.4-2.1c-0.1,0-0.1,0-0.2,0c-0.2,0-0.4,0-0.6,0c-1.5,0.2-3.4,1.1-4.7,2.1
			c-0.1,0.1-0.3,0.2-0.4,0.3c-0.1,0.1-0.2,0.2-0.3,0.3c-1.3,1.2-1.2,2,0.4,2c1.5,0,4-0.9,5.6-2c0.1-0.1,0.2-0.2,0.3-0.3
			C67.2,83.1,67.3,83,67.4,82.9z M62.5,84.4c-0.7,0-0.8-0.4-0.3-0.9c0.1-0.1,0.2-0.2,0.3-0.3c0.1-0.1,0.3-0.2,0.4-0.3
			c0.6-0.4,1.3-0.7,1.9-0.8C65,82,65.3,82,65.5,82c0.1,0,0.1,0,0.2,0c0.6,0.1,0.7,0.4,0.3,0.9c-0.1,0.1-0.2,0.2-0.3,0.3
			c-0.1,0.1-0.2,0.2-0.4,0.3C64.4,84,63.3,84.4,62.5,84.4z"/>
		<path fill="#333333" d="M83.9,57.1c0.2-1.5-0.7-2.8-2.1-2.9c-0.1,0-0.1,0-0.2,0c-0.2,0-0.4,0-0.6,0.1c-1.3,0.3-2.6,1.4-3.1,2.8
			c-0.1,0.1-0.1,0.3-0.1,0.4c0,0.1-0.1,0.2-0.1,0.4c-0.3,1.4,0.3,2.6,1.5,2.8c0.2,0,0.3,0.1,0.5,0.1c0.1,0,0.1,0,0.2,0
			c1.5-0.1,3.1-1.3,3.8-2.9c0-0.1,0.1-0.2,0.1-0.4C83.8,57.4,83.9,57.3,83.9,57.1z M80.4,59.2c-0.1,0-0.1,0-0.2,0
			c-0.2,0-0.4,0-0.5-0.1c-0.4-0.2-0.6-0.6-0.6-1.2c0-0.1,0-0.2,0.1-0.4c0-0.1,0.1-0.3,0.2-0.4c0.3-0.5,0.7-0.9,1.2-1.1
			c0.2-0.1,0.4-0.1,0.6-0.1c0.1,0,0.1,0,0.2,0c0.6,0.1,1,0.6,1,1.2c0,0.1,0,0.3-0.1,0.4c0,0.1-0.1,0.2-0.1,0.4
			C81.8,58.6,81.1,59.1,80.4,59.2z"/>
		<path fill="#333333" d="M106.8,24.8c-0.2,0-0.4-0.1-0.6-0.1c0,0-0.1,0-0.2,0c0,0,0,0-0.1,0c-1.5,0.1-2.3,1.5-1.8,3.2c0,0,0,0,0,0
			c0.1,0.3,0.2,0.5,0.3,0.7c0,0,0-0.1,0,0c0.7,1.4,2,2.3,3.3,2.3c0,0,0,0,0,0c0.1,0,0.1,0,0.2,0c0.2,0,0.4,0,0.6,0c0,0,0,0,0,0
			c1.3-0.4,2.1-1.5,1.6-3.1C109.8,26.2,108.3,25,106.8,24.8z M108.2,29.5c-0.1,0.1-0.3,0.1-0.5,0.1c-0.1,0-0.1,0-0.2,0
			c-0.5-0.1-1.1-0.4-1.4-0.9c-0.2-0.2-0.4-0.5-0.5-0.8c0-0.1,0-0.1-0.1-0.2c0,0,0.1,0,0.1,0c-0.2-0.8,0.2-1.4,0.9-1.5
			c0.1,0,0.1,0,0.2,0c0.2,0,0.4,0.1,0.6,0.1c0.7,0.2,1.3,0.9,1.5,1.6C109,28.7,108.8,29.3,108.2,29.5z"/>
		<path fill="#333333" d="M87.6,0c-1.5,0-1.6,0.8-0.4,2c0.1,0.1,0.2,0.2,0.4,0.3c0.1,0.1,0.2,0.2,0.3,0.3c1.5,1.1,3.7,2.1,5.2,2.2
			c0.1,0,0.1,0,0.2,0c0.2,0,0.4,0,0.5,0c1.2-0.2,1.2-1.2-0.2-2.4C92,1,89.2,0,87.6,0z M92.4,3.5c-0.1,0.1-0.3,0.1-0.5,0.1
			c-0.1,0-0.1,0-0.2,0c-0.7-0.1-1.7-0.5-2.4-1c-0.1-0.1-0.2-0.2-0.4-0.3c-0.1-0.1-0.2-0.2-0.3-0.3c-0.5-0.5-0.3-0.9,0.4-0.9
			c0.8,0,2.2,0.5,3,1.2C92.7,2.8,92.8,3.3,92.4,3.5z"/>
		<path fill="#333333" d="M93.8,80.8c-0.1,0-0.3,0-0.5,0c-0.1,0-0.1,0-0.2,0c-1.5,0.1-3.6,1-5.2,2.1c-0.1,0.1-0.3,0.2-0.4,0.3
			c-0.1,0.1-0.2,0.2-0.3,0.3c-1.3,1.2-1.2,2,0.4,2c1.7,0,4.4-1,6-2.3C94.9,82,94.9,81,93.8,80.8z M89.1,84.4c-0.7,0-0.8-0.4-0.3-0.9
			c0.1-0.1,0.2-0.2,0.3-0.3c0.1-0.1,0.3-0.2,0.4-0.3c0.7-0.5,1.6-0.8,2.3-0.9c0.1,0,0.1,0,0.2,0c0.2,0,0.3,0,0.5,0.1
			c0.4,0.2,0.3,0.6-0.3,1.1C91.3,83.9,89.9,84.4,89.1,84.4z"/>
		<path fill="#333333" d="M104.5,57c0.5,0,1,0,1.5,0c0.3-0.4,0.9-1,1.6-1.1c0.1-0.5,0.3-1.1,0.4-1.6C106.5,54.4,105,55.8,104.5,57z
			 M104.5,57c0.5,0,1,0,1.5,0c0.3-0.4,0.9-1,1.6-1.1c0.1-0.5,0.3-1.1,0.4-1.6C106.5,54.4,105,55.8,104.5,57z M104.5,57
			c0.5,0,1,0,1.5,0c0.3-0.4,0.9-1,1.6-1.1c0.1-0.5,0.3-1.1,0.4-1.6C106.5,54.4,105,55.8,104.5,57z M104.5,57c0.5,0,1,0,1.5,0
			c0.3-0.4,0.9-1,1.6-1.1c0.1-0.5,0.3-1.1,0.4-1.6C106.5,54.4,105,55.8,104.5,57z M108.7,54.3c-0.2,0-0.4-0.1-0.5-0.1
			c-0.1,0-0.1,0-0.2,0c-1.5,0.1-2.9,1.3-3.5,2.9c-0.1,0.1-0.1,0.3-0.1,0.4c0,0.1-0.1,0.2-0.1,0.4c-0.3,1.6,0.4,2.8,1.9,2.9
			c0.1,0,0.1,0,0.2,0c0.2,0,0.4,0,0.6-0.1c1.5-0.3,3-1.6,3.5-3.2C110.7,56,110,54.6,108.7,54.3z M107.3,59.1
			c-0.2,0.1-0.4,0.1-0.6,0.1c-0.1,0-0.1,0-0.2,0c-0.6-0.1-1-0.6-0.9-1.3c0-0.1,0-0.2,0.1-0.4c0-0.1,0.1-0.3,0.2-0.4
			c0.3-0.7,1-1.2,1.6-1.2c0.1,0,0.1,0,0.2,0c0.2,0,0.4,0,0.5,0.1c0.5,0.2,0.8,0.9,0.6,1.6C108.6,58.3,108,58.9,107.3,59.1z
			 M104.5,57c0.5,0,1,0,1.5,0c0.3-0.4,0.9-1,1.6-1.1c0.1-0.5,0.3-1.1,0.4-1.6C106.5,54.4,105,55.8,104.5,57z M104.5,57
			c0.5,0,1,0,1.5,0c0.3-0.4,0.9-1,1.6-1.1c0.1-0.5,0.3-1.1,0.4-1.6C106.5,54.4,105,55.8,104.5,57z M104.5,57c0.5,0,1,0,1.5,0
			c0.3-0.4,0.9-1,1.6-1.1c0.1-0.5,0.3-1.1,0.4-1.6C106.5,54.4,105,55.8,104.5,57z"/>
	</g>
</g>
<text transform="matrix(1 0 0 1 5.860375e-05 50.0133)" font-family="'AzoSansUber-Regular'" font-size="21.6029">FlexGrid</text>
</svg>
