<?xml version="1.0" encoding="utf-8"?>
<!-- Generator: Adobe Illustrator 18.1.1, SVG Export Plug-In . SVG Version: 6.00 Build 0)  -->
<!DOCTYPE svg PUBLIC "-//W3C//DTD SVG 1.1//EN" "http://www.w3.org/Graphics/SVG/1.1/DTD/svg11.dtd">
<svg version="1.1" id="Layer_1" xmlns="http://www.w3.org/2000/svg" xmlns:xlink="http://www.w3.org/1999/xlink" x="0px" y="0px"
	 width="157px" height="57.9px" viewBox="-113.7 122.3 157 57.9" enable-background="new -113.7 122.3 157 57.9"
	 xml:space="preserve">
<g>
	<path fill="#7494ED" d="M11.7,135c0,1.7-1.3,3-3,3h-20.1c-1.6,0-3-1.3-3-3v-9.7c0-1.7,1.4-3,3-3H8.7c1.7,0,3,1.3,3,3V135z"/>
	<g>
		<path fill="#A0BBF9" d="M8.7,143.4h-20.1c-1.7,0-3,1.3-3,3v9.7c0,1.7,1.3,3,3,3H8.7c1.7,0,3-1.3,3-3v-9.7
			C11.7,144.8,10.3,143.4,8.7,143.4z M-10,154h-0.1v-5.5h0.2c1.2,0,1.9,0.4,2.4,0.8c0.4,0.5,0.7,1.1,0.7,1.9c0,0.8-0.3,1.4-0.7,1.8
			C-8.1,153.7-8.9,154-10,154z"/>
	</g>
	<path fill="#A0BBF9" d="M43.2,156.1c0,1.7-1.3,3-3,3H20.1c-1.6,0-3-1.3-3-3v-9.7c0-1.7,1.4-3,3-3h20.1c1.7,0,3,1.3,3,3V156.1z"/>
	<g>
		<path fill="#393A3D" d="M-113.7,143.4h11.7v5.3h-5.2v0.9h4.1v4h-4.1v5.6h-6.5V143.4z"/>
		<path fill="#393A3D" d="M-100.4,143.4h6.5v10.2h4.9v5.6h-11.4V143.4z"/>
		<path fill="#393A3D" d="M-87.3,143.4h11.4v5.3h-4.9v0.8h3.9v3.7h-3.9v0.9h5.2v5h-11.7V143.4z"/>
		<path fill="#393A3D" d="M-69.8,150.8l-4.4-7.4h7.1l1.5,3.2h0l1.5-3.2h6.4l-4.4,7.5l5.1,8.3h-7.3l-2-3.8h0l-1.9,3.8h-6.6
			L-69.8,150.8z"/>
		<path fill="#393A3D" d="M-58.4,151.4c0-4.8,3.9-8.3,9.4-8.3c2.1,0,4,0.5,5.3,1.1v5.4c-1.3-0.5-3.2-1.1-4.7-1.1
			c-2.3,0-3.5,1.3-3.5,3c0,1.9,1.5,3,3.1,3c0.3,0,0.5,0,0.7-0.1v-0.8h-1.6v-3.5h6.4v7.8c-1.2,0.7-3.2,1.4-5.8,1.4
			C-54.8,159.4-58.4,155.9-58.4,151.4z"/>
		<path fill="#393A3D" d="M-41.5,143.4h6.5c3.2,0,7.7,0.8,7.7,5c0,1.7-0.8,2.9-2,3.7l3.6,7h-6.8l-2.4-5.2H-35v5.2h-6.5V143.4z
			 M-34.5,150.3c1,0,1.5-0.5,1.5-1.2c0-0.7-0.5-1.2-1.5-1.2H-35v2.4H-34.5z"/>
		<path fill="#393A3D" d="M-25.1,143.4h6.5v15.8h-6.5V143.4z"/>
		<path fill="#393A3D" d="M-3.1,145.8c-1.4-1.3-3.3-2.2-5.8-2.4c-0.4,0-0.8-0.1-1.2-0.1h-6.6v15.8h6.6c0.5,0,0.9,0,1.4-0.1
			c2.4-0.2,4.3-1.1,5.6-2.4c1.4-1.4,2.2-3.2,2.2-5.4C-0.8,149-1.7,147.2-3.1,145.8z M-7.6,153.1c-0.5,0.5-1.3,0.9-2.4,0.9h-0.1v-5.5
			h0.2c1.2,0,1.9,0.4,2.4,0.8c0.4,0.5,0.7,1.1,0.7,1.9C-6.9,152-7.1,152.7-7.6,153.1z"/>
	</g>
	<path fill="#7494ED" d="M11.7,177.2c0,1.6-1.3,3-3,3h-20.1c-1.6,0-3-1.4-3-3v-9.7c0-1.7,1.4-3,3-3H8.7c1.7,0,3,1.3,3,3V177.2z"/>
</g>
</svg>
