<?xml version="1.0" encoding="utf-8"?>
<!-- Generator: Adobe Illustrator 18.1.1, SVG Export Plug-In . SVG Version: 6.00 Build 0)  -->
<!DOCTYPE svg PUBLIC "-//W3C//DTD SVG 1.1//EN" "http://www.w3.org/Graphics/SVG/1.1/DTD/svg11.dtd">
<svg version="1.1" id="Layer_1" xmlns="http://www.w3.org/2000/svg" xmlns:xlink="http://www.w3.org/1999/xlink" x="0px" y="0px"
	 width="278px" height="278px" viewBox="146 -124 278 278" enable-background="new 146 -124 278 278" xml:space="preserve">
<g>
	<path fill="#00488F" d="M285-124c-76.8,0-139,62.2-139,139s62.2,139,139,139S424,91.8,424,15S361.8-124,285-124z M367.5,97.5
		c-10.7,10.7-23.2,19.1-37.1,25c-3.5,1.5-7.1,2.8-10.8,3.9v-20.8c0-11-3.8-19-11.3-24.2c4.7-0.5,9-1.1,13-1.9s8.1-2,12.5-3.5
		s8.3-3.4,11.8-5.5s6.8-4.9,10-8.3c3.2-3.4,5.9-7.2,8.1-11.5s3.9-9.5,5.2-15.5s1.9-12.6,1.9-19.9c0-14-4.6-26-13.7-35.8
		c4.2-10.9,3.7-22.7-1.4-35.4l-3.4-0.4c-2.4-0.3-6.6,0.7-12.7,3s-13,6-20.6,11.1c-10.8-3-21.9-4.5-33.5-4.5
		c-11.7,0-22.8,1.5-33.4,4.5c-4.8-3.3-9.3-6-13.6-8.1s-7.7-3.6-10.3-4.3c-2.6-0.8-5-1.2-7.2-1.4s-3.6-0.2-4.3-0.1
		c-0.6,0.1-1.1,0.2-1.4,0.3c-5.1,12.9-5.5,24.7-1.4,35.4c-9.1,9.9-13.7,21.8-13.7,35.8c0,7.2,0.6,13.9,1.9,19.9
		c1.3,6,3,11.2,5.2,15.5c2.2,4.3,4.9,8.1,8.1,11.5s6.6,6.2,10,8.3s7.4,4,11.8,5.5s8.6,2.7,12.5,3.5s8.3,1.4,13,1.9
		c-7.4,5.1-11.1,13.1-11.1,24.2v21.2c-4.1-1.2-8.1-2.7-12.1-4.3c-13.9-5.9-26.4-14.3-37.1-25c-10.7-10.7-19.1-23.2-25-37.1
		c-6.1-14.4-9.2-29.7-9.2-45.4s3.1-31.1,9.2-45.4c5.9-13.9,14.3-26.4,25-37.1c10.7-10.7,23.2-19.1,37.1-25
		c14.4-6.1,29.7-9.2,45.4-9.2s31.1,3.1,45.4,9.2c13.9,5.9,26.4,14.3,37.1,25c10.7,10.7,19.1,23.2,25,37.1
		c6.1,14.4,9.2,29.7,9.2,45.4s-3.1,31.1-9.2,45.4C386.7,74.3,378.3,86.8,367.5,97.5z"/>
</g>
</svg>
